<svg width="512" height="237" viewBox="0 0 512 237" fill="none" xmlns="http://www.w3.org/2000/svg">
<path fill-rule="evenodd" clip-rule="evenodd" d="M290.824 2.03999C285.201 4.58899 282.218 7.33899 279.523 12.456C277.659 15.996 277.37 18.555 277.011 34.691L276.605 52.926L268.465 45.362C255.764 33.559 237.815 25.956 222.655 25.956C218.419 25.956 218.291 26.067 189.363 54.881L160.324 83.807L153.385 77.312C148.432 72.675 143.853 69.58 137.385 66.494C127.599 61.826 122.913 60.481 112.823 59.444C107.099 58.856 105.997 59.032 103.596 60.92L100.871 63.064L100.597 80.26L100.324 97.456L97.3238 97.163C95.6738 97.002 84.1988 91.088 71.8238 84.02C59.4488 76.952 47.4968 70.255 45.2638 69.139C36.0898 64.553 19.3588 62.338 15.5428 65.206C13.5198 66.726 8.65883 78.351 5.82883 88.437C0.290831 108.175 -1.40617 130.857 1.19083 150.456C4.04683 172.021 12.0898 195.966 17.1188 197.878C20.5598 199.186 33.7128 197.36 41.1508 194.542C44.5458 193.255 57.2238 186.47 69.3238 179.465C90.9418 166.948 98.1568 163.426 99.9298 164.522C100.422 164.826 100.824 172.665 100.824 181.942V198.811L103.459 200.883C106.562 203.324 110.009 203.461 120.049 201.54C133.659 198.936 146.41 192.245 155.277 183.053C157.451 180.8 159.691 178.956 160.254 178.956C160.818 178.956 174.201 191.85 189.994 207.609L218.71 236.261L226.741 235.642C236.346 234.901 248.076 231.151 256.314 226.188C259.62 224.197 267.972 217.041 274.876 210.286L287.428 198.004L309.376 198.139C321.447 198.214 336.499 197.93 342.824 197.51L354.324 196.744L354.026 211.654C353.748 225.578 353.868 226.742 355.849 229.26C357.731 231.653 358.644 231.956 363.97 231.956C371.3 231.956 382.886 228.257 390.19 223.585C400.874 216.751 409.24 204.698 412.516 191.42C413.449 187.64 414.646 184.956 415.399 184.956C417.472 184.956 446.552 175.332 455.824 171.578C460.499 169.685 464.482 168.291 464.676 168.481C465.619 169.407 461.205 179.601 457.261 185.607C451.473 194.42 451.426 197.665 457.048 200.572C459.439 201.808 460.58 201.886 462.809 200.962C468.684 198.529 477.847 181.565 480.348 168.492C481.18 164.144 481.965 160.518 482.093 160.435C482.22 160.353 486.374 158.125 491.324 155.484C503.81 148.824 506.681 146.459 509.422 140.573C513.211 132.435 512.169 124.03 506.439 116.518C503.662 112.877 483.905 102.247 464.672 94.046C442.302 84.507 406.619 73.741 384.824 69.954L378.324 68.825L345.824 36.443C311.294 2.03799 308.721 0 299.824 0C297.349 0 293.299 0.917993 290.824 2.03999ZM328.246 40.056L353.324 65.156L343.92 64.556C338.748 64.226 324.911 63.956 313.17 63.956H291.824V42.906C291.824 17.317 292.45 15.246 300.246 15.035C302.771 14.967 306.577 18.368 328.246 40.056ZM238.824 44.13C241.849 45.166 246.647 47.554 249.486 49.436C254.72 52.907 267.824 64.634 267.824 65.847C267.824 66.211 262.58 67.271 256.17 68.203C243.541 70.038 239.824 71.969 239.824 76.696C239.824 83.544 243.848 85.386 254.655 83.486C259.006 82.721 269.937 81.336 278.945 80.409C308.366 77.381 364.188 79.704 377.401 84.507C381.967 86.167 387.188 90.825 389.506 95.307C390.351 96.942 391.27 100.795 391.548 103.868L392.052 109.456H384.022C376.703 109.456 375.611 109.724 371.701 112.473C369.025 114.355 366.36 117.502 364.617 120.837C361.929 125.984 361.824 126.735 361.824 140.889C361.824 159.959 363.146 164.845 371.11 175.206C372.695 177.269 373.583 178.956 373.082 178.956C372.582 178.956 367.385 179.628 361.533 180.449C329.596 184.933 282.705 183.917 251.375 178.064C243.321 176.56 238.524 180.638 240.251 187.522C241.1 190.905 245 192.434 256.824 194.018C262.049 194.717 266.688 195.601 267.133 195.982C267.578 196.362 264.203 200.148 259.633 204.395C250.281 213.086 241.166 218.06 230.981 220.027L224.639 221.253L204.268 200.901C193.065 189.707 184.034 180.413 184.199 180.247C184.365 180.082 190.035 181.073 196.8 182.451C211.625 185.47 214.959 185.569 217.233 183.057C219.606 180.434 219.581 175.269 217.184 172.871C215.635 171.323 201.944 168.271 150.437 157.994C112.773 150.479 84.6108 144.391 83.1838 143.456C74.8108 137.97 74.7958 123.952 83.1558 118.474C84.5558 117.557 112.964 111.465 150.262 104.083C220.865 90.111 219.232 90.593 219.038 83.782C218.926 79.852 215.877 76.956 211.851 76.956C210.337 76.956 203.575 78.081 196.824 79.456C190.073 80.831 184.277 81.956 183.946 81.956C183.614 81.956 192.563 72.723 203.833 61.437L224.324 40.918L228.824 41.583C231.299 41.948 235.799 43.095 238.824 44.13ZM127.549 78.14C132.56 80.002 145.48 88.634 144.588 89.525C144.352 89.762 137.783 91.244 129.991 92.819L115.824 95.683V85.24V74.797L119.074 75.498C120.861 75.884 124.675 77.072 127.549 78.14ZM32.8918 80.544C35.8798 81.417 46.9318 87.061 57.4518 93.086L76.5798 104.04L70.9128 109.748C62.2748 118.447 59.7948 128.761 63.4128 140.943C64.6318 145.049 66.3548 147.647 70.8148 152.107L76.6268 157.919L62.4758 166.149C41.0578 178.603 33.9278 182.028 28.9438 182.256L24.5628 182.456L22.6258 176.956C13.4478 150.9 12.5698 119.285 20.2868 92.691C24.7608 77.275 24.0498 77.959 32.8918 80.544ZM422.02 94.597C449.935 103.415 489.66 120.643 494.801 126.161C497.425 128.978 497.381 133.399 494.703 136.077C492 138.78 463.989 152.337 448.324 158.523C434.444 164.005 427.819 164.99 421.377 162.529C415.953 160.458 409.34 153.478 407.905 148.311C407.303 146.14 406.822 135.064 406.806 122.956C406.778 103.042 406.417 98.462 404.369 92.074C403.639 89.798 403.763 89.722 407.161 90.359C409.116 90.726 415.803 92.633 422.02 94.597ZM287.324 110.826C279.261 113.147 269.749 118.353 264.299 123.429C260.602 126.872 259.824 128.221 259.824 131.191C259.824 134.21 260.561 135.435 264.422 138.834C282.478 154.727 309.179 157.725 330.964 146.305C339.845 141.649 346.824 134.946 346.824 131.073C346.824 124.825 329.166 112.773 316.025 110.053C308.25 108.444 294.294 108.819 287.324 110.826ZM438.897 121.591C434.689 126.94 437.649 133.356 444.324 133.356C450.999 133.356 453.959 126.94 449.751 121.591C448.248 119.68 446.757 118.956 444.324 118.956C441.891 118.956 440.4 119.68 438.897 121.591ZM320.574 127.394C324.012 128.953 326.824 130.509 326.824 130.852C326.824 131.923 322.724 134.098 316.912 136.109C306.979 139.547 292.898 138.585 283.58 133.831C279.253 131.624 278.92 130.514 282.074 128.813C292.699 123.085 309.696 122.458 320.574 127.394ZM389.538 126.206C391.294 128.121 391.665 130.102 392.029 139.516C392.407 149.276 392.821 151.352 395.542 157.168C397.239 160.793 400.436 165.568 402.648 167.78C407.197 172.329 406.741 172.97 398.992 172.934C392.852 172.905 387.178 170.215 382.641 165.183C377.777 159.789 376.836 155.877 376.83 141.02C376.824 129.625 377.006 128.391 378.998 126.27C381.866 123.218 386.772 123.188 389.538 126.206ZM131.751 169.633L145.178 172.311L141.251 175.712C136.658 179.689 124.95 185.513 119.574 186.494L115.824 187.179V177.067C115.824 169.645 116.156 166.956 117.074 166.955C117.762 166.955 124.366 168.16 131.751 169.633ZM396.291 193.706C392.621 202.531 385.869 209.629 377.389 213.578C369.061 217.456 368.824 217.289 368.824 207.512C368.824 195.899 369.935 194.721 383.324 192.129C388.824 191.064 394.343 190.14 395.587 190.075C397.817 189.958 397.828 190.011 396.291 193.706Z" fill="white"/>
</svg>
